# xmcd CD database file
#
# Track frame offsets:
#	150
#	19966
#	30873
#	50284
#	68639
#	82575
#	102522
#	121229
#	141438
#	158414
#
# Disc length: 2419 seconds
#
# Revision: 0
# Processed by: cddbd v1.5.1PL0 Copyright (c) Steve Scherf et al.
# Submitted via: CDex 1.51
#
DISCID=6f09710a
DTITLE=岡北有由 - 耳を澄ませ
DYEAR=2004
DGENRE=J-pop
TTITLE0=足跡
TTITLE1=Sleeping pills
TTITLE2=PUt it OUt
TTITLE3=耳を澄ませ
TTITLE4=Blow
TTITLE5=Where are you?
TTITLE6=エン
TTITLE7=Almost fake
TTITLE8=When the sun sets
TTITLE9=Pour the Rain
EXTD=YEAR: 2004
EXTT0=
EXTT1=
EXTT2=
EXTT3=
EXTT4=
EXTT5=
EXTT6=
EXTT7=
EXTT8=
EXTT9=
PLAYORDER=
